<?xml version="1.0" encoding="UTF-8"?>
<svg width="24px" height="26px" viewBox="0 0 24 26" version="1.1" xmlns="http://www.w3.org/2000/svg" xmlns:xlink="http://www.w3.org/1999/xlink">
    <!-- Generator: Sketch 46.2 (44496) - http://www.bohemiancoding.com/sketch -->
    <title>logo</title>
    <desc>Created with Sketch.</desc>
    <defs>
        <polygon id="path-1" points="1.89228154e-15 20.9762906 1.89228154e-15 0.0270166604 20.9492448 0.0270166604 20.9492448 20.9762906"></polygon>
    </defs>
    <g id="Page-1" stroke="none" stroke-width="1" fill="none" fill-rule="evenodd">
        <g id="首页" transform="translate(-22.000000, -8.000000)">
            <g id="nav">
                <g id="logo" transform="translate(22.000000, 8.000000)">
                    <g id="Group-8" transform="translate(0.000000, 2.000000)">
                        <mask id="mask-2" fill="white">
                            <use xlink:href="#path-1"></use>
                        </mask>
                        <g id="Clip-7"></g>
                        <path d="M10.4746078,0.0270166604 C4.68962416,0.0270166604 -2.913371e-05,4.71666996 -2.913371e-05,10.5016536 C-2.913371e-05,16.2866373 4.68962416,20.9762906 10.4746078,20.9762906 C16.2595915,20.9762906 20.9492448,16.2866373 20.9492448,10.5016536 C20.9492448,4.71666996 16.2595915,0.0270166604 10.4746078,0.0270166604 M10.4746078,1.77503926 C15.2865256,1.77503926 19.2012222,5.68983298 19.2012222,10.5016536 C19.2012222,15.3134743 15.2865256,19.228268 10.4746078,19.228268 C5.66278719,19.228268 1.74799347,15.3134743 1.74799347,10.5016536 C1.74799347,5.68983298 5.66278719,1.77503926 10.4746078,1.77503926" id="Fill-6" fill="#020303" mask="url(#mask-2)"></path>
                    </g>
                    <path d="M15.4054658,0.915552755 C19.9774526,2.8906443 22.9990997,7.39035169 22.9990997,12.443656 C22.9990997,19.3795554 17.3590695,25.0021828 10.4016688,25.0021828 C8.65801203,25.0021828 6.96440199,24.648381 5.39797833,23.9716622 L5,24.8872094 C6.69139338,25.617917 8.5203823,26 10.4016688,26 C17.9118502,26 24,19.9306358 24,12.443656 C24,6.98908096 20.7382611,2.13183924 15.8034312,0 L15.4054658,0.915552755 Z" id="Stroke-9" fill="#33C5F3" fill-rule="nonzero"></path>
                </g>
            </g>
        </g>
    </g>
</svg>